G75*
%MOIN*%
%OFA0B0*%
%FSLAX24Y24*%
%IPPOS*%
%LPD*%
%AMOC8*
5,1,8,0,0,1.08239X$1,22.5*
%
%ADD10C,0.0000*%
%ADD11C,0.0050*%
%ADD12C,0.0040*%
%ADD13C,0.0080*%
D10*
X000100Y000100D02*
X000100Y016096D01*
X017970Y016096D01*
X017970Y000100D01*
X000100Y000100D01*
X001500Y002600D02*
X001502Y002649D01*
X001508Y002697D01*
X001518Y002745D01*
X001532Y002792D01*
X001549Y002838D01*
X001570Y002882D01*
X001595Y002924D01*
X001623Y002964D01*
X001655Y003002D01*
X001689Y003037D01*
X001726Y003069D01*
X001765Y003098D01*
X001807Y003124D01*
X001851Y003146D01*
X001896Y003164D01*
X001943Y003179D01*
X001990Y003190D01*
X002039Y003197D01*
X002088Y003200D01*
X002137Y003199D01*
X002185Y003194D01*
X002234Y003185D01*
X002281Y003172D01*
X002327Y003155D01*
X002371Y003135D01*
X002414Y003111D01*
X002455Y003084D01*
X002493Y003053D01*
X002529Y003020D01*
X002561Y002984D01*
X002591Y002945D01*
X002618Y002904D01*
X002641Y002860D01*
X002660Y002815D01*
X002676Y002769D01*
X002688Y002722D01*
X002696Y002673D01*
X002700Y002624D01*
X002700Y002576D01*
X002696Y002527D01*
X002688Y002478D01*
X002676Y002431D01*
X002660Y002385D01*
X002641Y002340D01*
X002618Y002296D01*
X002591Y002255D01*
X002561Y002216D01*
X002529Y002180D01*
X002493Y002147D01*
X002455Y002116D01*
X002414Y002089D01*
X002371Y002065D01*
X002327Y002045D01*
X002281Y002028D01*
X002234Y002015D01*
X002185Y002006D01*
X002137Y002001D01*
X002088Y002000D01*
X002039Y002003D01*
X001990Y002010D01*
X001943Y002021D01*
X001896Y002036D01*
X001851Y002054D01*
X001807Y002076D01*
X001765Y002102D01*
X001726Y002131D01*
X001689Y002163D01*
X001655Y002198D01*
X001623Y002236D01*
X001595Y002276D01*
X001570Y002318D01*
X001549Y002362D01*
X001532Y002408D01*
X001518Y002455D01*
X001508Y002503D01*
X001502Y002551D01*
X001500Y002600D01*
X001500Y013600D02*
X001502Y013649D01*
X001508Y013697D01*
X001518Y013745D01*
X001532Y013792D01*
X001549Y013838D01*
X001570Y013882D01*
X001595Y013924D01*
X001623Y013964D01*
X001655Y014002D01*
X001689Y014037D01*
X001726Y014069D01*
X001765Y014098D01*
X001807Y014124D01*
X001851Y014146D01*
X001896Y014164D01*
X001943Y014179D01*
X001990Y014190D01*
X002039Y014197D01*
X002088Y014200D01*
X002137Y014199D01*
X002185Y014194D01*
X002234Y014185D01*
X002281Y014172D01*
X002327Y014155D01*
X002371Y014135D01*
X002414Y014111D01*
X002455Y014084D01*
X002493Y014053D01*
X002529Y014020D01*
X002561Y013984D01*
X002591Y013945D01*
X002618Y013904D01*
X002641Y013860D01*
X002660Y013815D01*
X002676Y013769D01*
X002688Y013722D01*
X002696Y013673D01*
X002700Y013624D01*
X002700Y013576D01*
X002696Y013527D01*
X002688Y013478D01*
X002676Y013431D01*
X002660Y013385D01*
X002641Y013340D01*
X002618Y013296D01*
X002591Y013255D01*
X002561Y013216D01*
X002529Y013180D01*
X002493Y013147D01*
X002455Y013116D01*
X002414Y013089D01*
X002371Y013065D01*
X002327Y013045D01*
X002281Y013028D01*
X002234Y013015D01*
X002185Y013006D01*
X002137Y013001D01*
X002088Y013000D01*
X002039Y013003D01*
X001990Y013010D01*
X001943Y013021D01*
X001896Y013036D01*
X001851Y013054D01*
X001807Y013076D01*
X001765Y013102D01*
X001726Y013131D01*
X001689Y013163D01*
X001655Y013198D01*
X001623Y013236D01*
X001595Y013276D01*
X001570Y013318D01*
X001549Y013362D01*
X001532Y013408D01*
X001518Y013455D01*
X001508Y013503D01*
X001502Y013551D01*
X001500Y013600D01*
X015500Y013600D02*
X015502Y013649D01*
X015508Y013697D01*
X015518Y013745D01*
X015532Y013792D01*
X015549Y013838D01*
X015570Y013882D01*
X015595Y013924D01*
X015623Y013964D01*
X015655Y014002D01*
X015689Y014037D01*
X015726Y014069D01*
X015765Y014098D01*
X015807Y014124D01*
X015851Y014146D01*
X015896Y014164D01*
X015943Y014179D01*
X015990Y014190D01*
X016039Y014197D01*
X016088Y014200D01*
X016137Y014199D01*
X016185Y014194D01*
X016234Y014185D01*
X016281Y014172D01*
X016327Y014155D01*
X016371Y014135D01*
X016414Y014111D01*
X016455Y014084D01*
X016493Y014053D01*
X016529Y014020D01*
X016561Y013984D01*
X016591Y013945D01*
X016618Y013904D01*
X016641Y013860D01*
X016660Y013815D01*
X016676Y013769D01*
X016688Y013722D01*
X016696Y013673D01*
X016700Y013624D01*
X016700Y013576D01*
X016696Y013527D01*
X016688Y013478D01*
X016676Y013431D01*
X016660Y013385D01*
X016641Y013340D01*
X016618Y013296D01*
X016591Y013255D01*
X016561Y013216D01*
X016529Y013180D01*
X016493Y013147D01*
X016455Y013116D01*
X016414Y013089D01*
X016371Y013065D01*
X016327Y013045D01*
X016281Y013028D01*
X016234Y013015D01*
X016185Y013006D01*
X016137Y013001D01*
X016088Y013000D01*
X016039Y013003D01*
X015990Y013010D01*
X015943Y013021D01*
X015896Y013036D01*
X015851Y013054D01*
X015807Y013076D01*
X015765Y013102D01*
X015726Y013131D01*
X015689Y013163D01*
X015655Y013198D01*
X015623Y013236D01*
X015595Y013276D01*
X015570Y013318D01*
X015549Y013362D01*
X015532Y013408D01*
X015518Y013455D01*
X015508Y013503D01*
X015502Y013551D01*
X015500Y013600D01*
X015500Y002600D02*
X015502Y002649D01*
X015508Y002697D01*
X015518Y002745D01*
X015532Y002792D01*
X015549Y002838D01*
X015570Y002882D01*
X015595Y002924D01*
X015623Y002964D01*
X015655Y003002D01*
X015689Y003037D01*
X015726Y003069D01*
X015765Y003098D01*
X015807Y003124D01*
X015851Y003146D01*
X015896Y003164D01*
X015943Y003179D01*
X015990Y003190D01*
X016039Y003197D01*
X016088Y003200D01*
X016137Y003199D01*
X016185Y003194D01*
X016234Y003185D01*
X016281Y003172D01*
X016327Y003155D01*
X016371Y003135D01*
X016414Y003111D01*
X016455Y003084D01*
X016493Y003053D01*
X016529Y003020D01*
X016561Y002984D01*
X016591Y002945D01*
X016618Y002904D01*
X016641Y002860D01*
X016660Y002815D01*
X016676Y002769D01*
X016688Y002722D01*
X016696Y002673D01*
X016700Y002624D01*
X016700Y002576D01*
X016696Y002527D01*
X016688Y002478D01*
X016676Y002431D01*
X016660Y002385D01*
X016641Y002340D01*
X016618Y002296D01*
X016591Y002255D01*
X016561Y002216D01*
X016529Y002180D01*
X016493Y002147D01*
X016455Y002116D01*
X016414Y002089D01*
X016371Y002065D01*
X016327Y002045D01*
X016281Y002028D01*
X016234Y002015D01*
X016185Y002006D01*
X016137Y002001D01*
X016088Y002000D01*
X016039Y002003D01*
X015990Y002010D01*
X015943Y002021D01*
X015896Y002036D01*
X015851Y002054D01*
X015807Y002076D01*
X015765Y002102D01*
X015726Y002131D01*
X015689Y002163D01*
X015655Y002198D01*
X015623Y002236D01*
X015595Y002276D01*
X015570Y002318D01*
X015549Y002362D01*
X015532Y002408D01*
X015518Y002455D01*
X015508Y002503D01*
X015502Y002551D01*
X015500Y002600D01*
D11*
X011685Y012145D02*
X011685Y017650D01*
X011650Y017650D02*
X006550Y017650D01*
X006515Y017650D02*
X006515Y012145D01*
X006540Y012140D02*
X011660Y012140D01*
X011100Y014600D02*
X010850Y017100D01*
X009600Y017100D01*
X009350Y014600D01*
X008850Y014600D02*
X008600Y017100D01*
X007350Y017100D01*
X007100Y014600D01*
D12*
X010620Y011447D02*
X010697Y011370D01*
X010773Y011370D01*
X010850Y011447D01*
X010850Y011830D01*
X010773Y011830D02*
X010927Y011830D01*
X011080Y011830D02*
X011311Y011830D01*
X011387Y011754D01*
X011387Y011600D01*
X011311Y011523D01*
X011080Y011523D01*
X011080Y011370D02*
X011080Y011830D01*
X011541Y011677D02*
X011694Y011830D01*
X011694Y011370D01*
X011541Y011370D02*
X011848Y011370D01*
D13*
X013725Y004750D02*
X013725Y002250D01*
X012900Y001450D01*
X005300Y001450D01*
X004475Y002250D01*
X004475Y004750D01*
X013725Y004750D01*
M02*
